<?xml version="1.0" encoding="utf-8"?>
<!-- Generator: Adobe Illustrator 16.0.0, SVG Export Plug-In . SVG Version: 6.00 Build 0)  -->
<!DOCTYPE svg PUBLIC "-//W3C//DTD SVG 1.1//EN" "http://www.w3.org/Graphics/SVG/1.1/DTD/svg11.dtd" [
	<!ENTITY ns_flows "http://ns.adobe.com/Flows/1.0/">
	<!ENTITY ns_extend "http://ns.adobe.com/Extensibility/1.0/">
	<!ENTITY ns_ai "http://ns.adobe.com/AdobeIllustrator/10.0/">
	<!ENTITY ns_graphs "http://ns.adobe.com/Graphs/1.0/">
]>
<svg version="1.1" id="Layer_1" xmlns:x="&ns_extend;" xmlns:i="&ns_ai;" xmlns:graph="&ns_graphs;"
	 xmlns="http://www.w3.org/2000/svg" xmlns:xlink="http://www.w3.org/1999/xlink" xmlns:a="http://ns.adobe.com/AdobeSVGViewerExtensions/3.0/"
	 x="0px" y="0px" width="864px" height="864px" viewBox="0 0 864 864" enable-background="new 0 0 864 864" xml:space="preserve">
<path fill="#603913" d="M345.088,550.242c-51.185-7.609-100.548-20.049-146.265-44.097
	C128.529,469.168,71.102,419.112,40.89,342.974c-11.863-30.352-5.291-52.124,0.338-64.375c4.691-10.209,8.679-20.898,14.533-30.409
	C124.619,136.335,227.574,78.06,354.59,54.933c35.382-6.442,126.491-4.704,157.358-0.356c44.076,6.208,85.758,19.839,125.974,38.144
	c77.896,35.455,134.422,90.892,185.049,162.263c26.058,36.735,24.976,71.152-1.747,113.468
	c-21.107,28.688-29.773,40.931-53.53,66.731c-67.552,60.51-147.056,97.683-237.004,111.921
	C485.667,554,379.333,555.333,345.088,550.242z M650.808,106.253c25.547,133.221,20.201,262.358,1.231,396.41
	c20.49-12.625,37.32-22.287,53.243-33.263c4.444-3.063,7.908-9.69,8.955-15.225c18.747-99.061,18.687-198.292,1.356-297.535
	c-0.726-4.152-2.589-9.453-5.72-11.616C691.363,132.247,672.319,120.24,650.808,106.253z M213.182,111.97
	c-2.381,0.375-3.527,0.241-4.281,0.723c-15.152,9.639-29.952,19.88-45.484,28.854c-9.811,5.668-14.542,13.26-16.186,24.208
	c-13.748,91.594-15.436,183.182,0.076,274.715c1.753,10.342,3.123,23.796,9.947,29.612c15.496,13.207,34.282,22.553,51.729,33.467
	C193.324,370.888,188.509,241.529,213.182,111.97z M282.834,174.47c0-6.633,0.524-13.329-0.244-19.871
	c-0.332-2.831-0.709-6.702-5.121-8.006c-3.5-0.278-7.865,4.399-8.069,6.904c-1.287,15.737-1.836,31.567-1.738,47.36
	c0.017,2.795,2.087,7.965,6.492,8.344c3.771,0.148,5.717-4.609,6.147-7.301C281.746,192.863,282.067,183.647,282.834,174.47z
	 M498.732,165.335c0,7.654-0.505,15.36,0.281,22.932c0.267,2.575,2.042,7.369,5.82,7.203c3.343,0.166,5.975-4.465,6.227-6.974
	c1.526-15.212,2.678-30.5,2.885-45.776c0.045-3.312-2.34-9.33-6.577-10.028c-4.467-0.884-6.801,6.21-7.341,9.75
	C498.887,149.917,499.05,165.335,498.732,165.335z M372.218,162.056c0-8.03,0.854-13.866-0.3-19.272
	c-0.768-3.59-1.682-8.602-6.767-9.817c-3.618,0.952-5.604,6.055-5.902,9.313c-1.319,14.307-2.121,28.703-2.111,43.065
	c0.003,3.485,0.966,9.235,5.857,10.45c5.132,0.368,6.367-6.376,7.057-10.036C371.66,177.231,371.717,168.411,372.218,162.056z
	 M405.69,161.2c0,7.193-0.634,14.47,0.299,21.539c0.398,3.017,1.436,7.885,6.254,8.382c3.358,0.031,5.832-4.535,6.072-7.057
	c1.459-15.332,2.488-30.734,2.731-46.126c0.045-2.852-1.489-8.503-6.379-8.658c-3.813-0.373-7.315,5.575-7.828,8.855
	C405.66,145.659,405.948,161.2,405.69,161.2z M591.109,176.471c0,8.187-0.465,16.415,0.257,24.537
	c0.248,2.785,1.474,7.55,5.321,7.946c3.273,0.396,6.586-4.194,6.82-6.589c1.544-15.775,2.591-31.626,2.875-47.469
	c0.053-2.982-0.883-8.054-6.253-9.058c-3.598-0.315-7.258,5.779-7.87,9.208C591.02,161.988,591.369,176.471,591.109,176.471z
	 M561.627,168.423c0-7.185,0.52-14.428-0.257-21.528c-0.308-2.822-1.763-7.965-5.354-7.986c-3.529-0.243-7.14,4.823-7.395,7.546
	c-1.439,15.319-2.2,30.732-2.277,46.118c-0.014,2.867,2.187,8.602,6.371,8.634c3.464,0.231,6.683-5.22,7.045-8.191
	C560.745,184.924,561.118,168.423,561.627,168.423z M309.196,169.835c0,7.708-0.636,15.498,0.318,23.085
	c0.371,2.947,1.378,7.461,6.655,8.148c4.218-0.159,5.902-4.76,6.13-7.378c1.343-15.354,2.229-30.778,2.321-46.183
	c0.017-2.86-2.123-8.578-6.59-8.621c-3.973-0.221-6.847,4.959-7.241,7.851C309.759,154.312,309.611,169.835,309.196,169.835z
	 M465.028,158.489c0.405-7.114,1.358-14.261,0.932-21.324c-0.161-2.677-1.565-7.73-5.401-7.734
	c-2.494-0.788-7.416,4.491-7.646,7.049c-1.418,15.706-2.161,31.502-2.198,47.271c-0.006,2.614,2.075,7.664,7.033,7.857
	c2.691-0.193,6.085-4.606,6.325-7.17C464.875,175.857,464.812,158.491,465.028,158.489z M519.28,154.744
	c-0.553,6.349-1.025,11.777-1.627,18.71c8.366,0.548,15.596,1.021,23.602,1.542c0-7.671,0-13.54,0-20.253
	C534.052,154.744,527.597,154.744,519.28,154.744z M493.288,151.983c-7.445,0-14.238,0-21.094,0c0,6.805,0,13.074,0,19.806
	c7.145,0,13.114,0,20.045,0C492.588,165.216,492.906,159.199,493.288,151.983z M352.359,151.083
	c-8.777,1.226-15.578,2.173-22.399,3.125c0,6.841,0,12.224,0,17.328c7.357,0,13.772,0,20.978,0
	C351.416,164.651,351.827,158.74,352.359,151.083z M399.5,151.908c-7.415,0-14.112,0-20.731,0c0,6.465,0,11.754,0,16.958
	c7.342,0,13.684,0,20.731,0C399.5,162.656,399.5,157.362,399.5,151.908z M446.322,150.979c-7.618,0-13.503,0-20.099,0
	c0,6.515,0,12.224,0,17.592c6.998,0,12.862,0,19.326,0C445.812,162.59,446.031,157.611,446.322,150.979z M584.996,179.331
	c0-7.635,0-13.528,0-20.492c-5.837-0.58-11.166-1.109-17.392-1.726c0,7.355,0,13.258,0,20.016
	C573.067,177.82,578.031,178.45,584.996,179.331z M289.224,157.915c0,7.15,0,13.404,0,20.586c5.617-1.314,9.911-2.32,14.176-3.319
	c0-6.882,0-12.779,0-19.453C298.062,156.552,293.731,157.219,289.224,157.915z"/>
</svg>
