<?xml version="1.0" encoding="iso-8859-1"?>
<svg version="1.1" id="Capa_1" xmlns="http://www.w3.org/2000/svg" xmlns:xlink="http://www.w3.org/1999/xlink" x="0px" y="0px"
	 viewBox="0 0 512 512" style="enable-background:new 0 0 512 512;" xml:space="preserve">
<path style="fill:#FA9600;" d="M256,10C120.138,10,10,120.138,10,256s110.138,246,246,246s246-110.138,246-246S391.862,10,256,10z"
	/>
<path style="fill:#E6E6E6;" d="M256,95c-88.918,0-161,72.082-161,161s72.082,161,161,161s161-72.082,161-161S344.918,95,256,95z"/>
<path style="fill:#F03C32;" d="M307.647,253.086L342.175,228h-42.679c-13.806,0-26.041-8.89-30.308-22.02L256,165.39l-13.189,40.59
	C238.545,219.11,226.31,228,212.504,228h-42.679l34.528,25.086c11.169,8.115,15.843,22.499,11.576,35.629l-13.189,40.59
	l34.528-25.086c11.169-8.115,26.293-8.115,37.462,0l34.528,25.086l-13.189-40.59C291.804,275.585,296.478,261.201,307.647,253.086z"
	/>
<path d="M437.019,74.98C388.667,26.629,324.38,0,256,0S123.333,26.629,74.981,74.98C26.628,123.333,0,187.62,0,256
	s26.628,132.667,74.981,181.02C123.333,485.371,187.62,512,256,512s132.667-26.629,181.019-74.98
	C485.372,388.667,512,324.38,512,256S485.372,123.333,437.019,74.98z M256,492C125.869,492,20,386.131,20,256S125.869,20,256,20
	s236,105.869,236,236S386.131,492,256,492z"/>
<path d="M216.58,63.96c11.168-2.288,9.859-19.8-1.99-19.8c-0.67,0-1.34,0.069-2.01,0.21c-48.152,10.107-91.874,36.226-123.22,74.199
	C57.633,157.005,40.019,206.203,40,256c0,5.51,4.49,10,10,10s10-4.49,10-10C59.98,163.252,125.827,82.494,216.58,63.96z"/>
<path d="M254.28,60.01h0.09c5.51-0.05,9.96-4.57,9.91-10.08c-0.04-5.47-4.52-9.92-9.99-9.92h-0.07h-0.01h-0.01
	c-5.51,0.04-9.96,4.56-9.91,10.08C244.33,55.56,248.82,60.01,254.28,60.01z"/>
<path d="M462,246c-5.51,0-10,4.49-10,10c0.02,92.75-65.83,173.51-156.58,192.04c-5.4,1.1-8.9,6.39-7.8,11.79
	c0.95,4.64,5.06,8.01,9.79,8.01h0.01c0.66,0,1.33-0.07,2-0.21c24.26-4.95,47.31-13.99,68.52-26.86
	c20.79-12.62,39.19-28.55,54.7-47.34c15.64-18.93,27.83-40.18,36.24-63.14C467.58,306.53,472,281.54,472,256
	C472,250.49,467.51,246,462,246z"/>
<path d="M257.72,451.99h-0.09c-5.51,0.05-9.96,4.569-9.92,10.079c0.05,5.471,4.53,9.921,10,9.921h0.07c0.01,0,0.01,0,0.01,0
	c5.52-0.04,9.97-4.57,9.92-10.08C267.67,456.439,263.19,451.99,257.72,451.99z"/>
<path d="M427,256c0-94.29-76.71-171-171-171S85,161.71,85,256s76.71,171,171,171S427,350.29,427,256z M105,256
	c0-83.262,67.738-151,151-151s151,67.738,151,151s-67.738,151-151,151S105,339.262,105,256z"/>
<path d="M268.853,312.309c0,0,34.528,25.086,34.529,25.086c7.626,5.541,18.302-2.21,15.388-11.18l-13.189-40.591
	c-2.937-9.037,0.256-18.862,7.944-24.448c0,0,34.455-25.033,34.528-25.086c7.642-5.552,3.615-18.09-5.878-18.09h-42.679
	c-9.503,0-17.86-6.072-20.797-15.109c0,0-13.15-40.473-13.188-40.591c-2.93-9.019-16.091-9.018-19.022,0l-13.188,40.591
	C230.364,211.928,222.007,218,212.504,218c0,0-42.515,0-42.679,0c-9.416,0-13.499,12.554-5.878,18.09l34.528,25.086
	c7.688,5.586,10.88,15.411,7.943,24.449c0,0-13.15,40.471-13.188,40.59c-2.933,9.028,7.72,16.752,15.389,11.18l34.528-25.086
	C250.835,306.723,261.166,306.725,268.853,312.309z M231.391,296.129l-9.629,6.996l3.678-11.319
	c5.623-17.304-0.489-36.114-15.208-46.81l-9.63-6.996h11.902c18.194,0,34.196-11.626,39.818-28.93L256,197.751l3.678,11.319
	C265.3,226.374,281.302,238,299.496,238h11.902l-9.629,6.996c-14.72,10.695-20.832,29.506-15.209,46.809l3.678,11.32
	c0,0-9.628-6.995-9.63-6.996C266.044,285.548,245.945,285.554,231.391,296.129z"/>
</svg>
